# xmcd CD database file generated by OrangeCD 6.2
#
# Track frame offsets:
#	150
#	17227
#	37972
#	51635
#
# Disc length: 961 seconds
#
# Revision: 0
# Processed by: cddbd v1.5.2PL0 Copyright (c) Steve Scherf et al.
# Submitted via: OrangeCD 6.2
#
DISCID=3003bf04
DTITLE=Credit To The Nation - Sowing The Seeds Of Hatred
DYEAR=1994
DGENRE=
TTITLE0=Sowing The Seeds Of Hatred (Radio Friendly Mix)
TTITLE1=Mr Ego Trip
TTITLE2=Sowing The Seeds Of Hatred (Doctor Quantize Mix)
TTITLE3=Sowing The Seeds Of Hatred (Album Mix)
EXTD=
EXTT0=
EXTT1=
EXTT2=
EXTT3=
PLAYORDER=
